<svg width="1920" height="1080" viewBox="0 0 1920 1080" fill="none" xmlns="http://www.w3.org/2000/svg">
<g clip-path="url(#clip0_38_2)">
<rect x="-16" y="-23" width="2050" height="1211" fill="url(#paint0_linear_38_2)"/>
<path d="M64 500C64 475.147 84.1472 455 109 455H1834C1858.85 455 1879 475.147 1879 500V968C1879 992.853 1858.85 1013 1834 1013H109C84.1472 1013 64 992.853 64 968V500Z" fill="url(#paint1_linear_38_2)"/>
<path d="M509 253C509 228.147 529.147 208 554 208H1113C1137.85 208 1158 228.147 1158 253V356C1158 380.853 1137.85 401 1113 401H554C529.147 401 509 380.853 509 356V253Z" fill="url(#paint2_linear_38_2)"/>
<path d="M1209 169C1209 144.147 1229.15 124 1254 124H1820C1844.85 124 1865 144.147 1865 169V356C1865 380.853 1844.85 401 1820 401H1254C1229.15 401 1209 380.853 1209 356V169Z" fill="url(#paint3_linear_38_2)"/>
<g filter="url(#filter0_d_38_2)">
<path d="M457.955 242.443C457.988 266.796 458.005 278.973 453.429 288.346C449.048 297.32 441.806 304.582 432.843 308.988C423.483 313.59 411.306 313.606 386.952 313.64L135.153 313.984C110.799 314.018 98.6222 314.034 89.2491 309.458C80.2748 305.077 73.0128 297.835 68.607 288.873C64.0054 279.512 63.9887 267.335 63.9554 242.982L63.7809 115.437C63.7476 91.0835 63.7309 78.9067 68.3068 69.5336C72.6881 60.5593 79.9302 53.2973 88.8926 48.8915C98.2531 44.2899 110.43 44.2732 134.784 44.2399L386.583 43.8953C410.937 43.862 423.114 43.8453 432.487 48.4213C441.461 52.8026 448.723 60.0447 453.129 69.007C457.731 78.3676 457.747 90.5444 457.781 114.898L457.955 242.443Z" fill="url(#paint4_linear_38_2)"/>
</g>
<g filter="url(#filter1_d_38_2)">
<path d="M64 164C64 138.798 64 126.196 68.9047 116.57C73.219 108.103 80.1031 101.219 88.5704 96.9047C98.1965 92 110.798 92 136 92H386C411.202 92 423.804 92 433.43 96.9047C441.897 101.219 448.781 108.103 453.095 116.57C458 126.196 458 138.798 458 164V329C458 354.202 458 366.804 453.095 376.43C448.781 384.897 441.897 391.781 433.43 396.095C423.804 401 411.202 401 386 401H136C110.798 401 98.1965 401 88.5704 396.095C80.1031 391.781 73.219 384.897 68.9047 376.43C64 366.804 64 354.202 64 329V164Z" fill="url(#paint5_linear_38_2)"/>
</g>
<path d="M552.515 356V343.396H556.153C560.8 343.396 563.123 345.444 563.123 349.54C563.123 351.485 562.479 353.05 561.189 354.233C559.9 355.411 558.172 356 556.004 356H552.515ZM554.598 345.172V354.233H556.268C557.738 354.233 558.881 353.829 559.695 353.021C560.516 352.212 560.926 351.069 560.926 349.593C560.926 346.646 559.399 345.172 556.347 345.172H554.598ZM572.826 352.054H566.691C566.715 352.886 566.97 353.527 567.456 353.979C567.948 354.43 568.622 354.655 569.478 354.655C570.438 354.655 571.32 354.368 572.123 353.794V355.438C571.303 355.953 570.219 356.211 568.871 356.211C567.547 356.211 566.507 355.804 565.751 354.989C565.001 354.169 564.626 353.018 564.626 351.535C564.626 350.135 565.039 348.995 565.865 348.116C566.697 347.231 567.729 346.789 568.959 346.789C570.189 346.789 571.142 347.185 571.815 347.976C572.489 348.767 572.826 349.865 572.826 351.271V352.054ZM570.857 350.612C570.852 349.88 570.679 349.312 570.339 348.907C569.999 348.497 569.53 348.292 568.933 348.292C568.347 348.292 567.849 348.506 567.438 348.934C567.034 349.361 566.785 349.921 566.691 350.612H570.857ZM581.211 355.587C580.49 356.003 579.638 356.211 578.653 356.211C577.317 356.211 576.239 355.795 575.419 354.963C574.599 354.125 574.188 353.041 574.188 351.711C574.188 350.229 574.628 349.039 575.507 348.143C576.392 347.24 577.572 346.789 579.049 346.789C579.869 346.789 580.593 346.933 581.22 347.22V349.118C580.593 348.649 579.925 348.415 579.216 348.415C578.354 348.415 577.648 348.708 577.098 349.294C576.547 349.874 576.271 350.636 576.271 351.579C576.271 352.511 576.529 353.246 577.045 353.785C577.566 354.324 578.264 354.594 579.137 354.594C579.869 354.594 580.561 354.333 581.211 353.812V355.587ZM590.149 356H588.172V354.594H588.137C587.516 355.672 586.604 356.211 585.403 356.211C584.519 356.211 583.824 355.971 583.32 355.49C582.822 355.01 582.573 354.374 582.573 353.583C582.573 351.884 583.552 350.894 585.509 350.612L588.181 350.234C588.181 348.951 587.571 348.31 586.353 348.31C585.28 348.31 584.313 348.679 583.452 349.417V347.633C584.401 347.07 585.497 346.789 586.739 346.789C589.013 346.789 590.149 347.908 590.149 350.146V356ZM588.181 351.579L586.291 351.843C585.705 351.919 585.263 352.062 584.964 352.273C584.671 352.479 584.524 352.842 584.524 353.363C584.524 353.744 584.659 354.058 584.929 354.304C585.204 354.544 585.57 354.664 586.027 354.664C586.648 354.664 587.161 354.447 587.565 354.014C587.976 353.574 588.181 353.023 588.181 352.361V351.579ZM600.828 356H598.789V354.471H598.754C598.098 355.631 597.087 356.211 595.722 356.211C594.614 356.211 593.727 355.81 593.059 355.007C592.396 354.198 592.065 353.1 592.065 351.711C592.065 350.223 592.432 349.03 593.164 348.134C593.902 347.237 594.884 346.789 596.108 346.789C597.321 346.789 598.203 347.275 598.754 348.248H598.789V342.676H600.828V356ZM598.815 351.887V350.709C598.815 350.07 598.607 349.528 598.191 349.083C597.775 348.638 597.245 348.415 596.601 348.415C595.839 348.415 595.238 348.699 594.799 349.268C594.365 349.836 594.148 350.624 594.148 351.632C594.148 352.546 594.356 353.27 594.772 353.803C595.194 354.33 595.76 354.594 596.469 354.594C597.166 354.594 597.731 354.339 598.165 353.829C598.599 353.313 598.815 352.666 598.815 351.887ZM610.399 356H608.422V354.594H608.387C607.766 355.672 606.854 356.211 605.653 356.211C604.769 356.211 604.074 355.971 603.57 355.49C603.072 355.01 602.823 354.374 602.823 353.583C602.823 351.884 603.802 350.894 605.759 350.612L608.431 350.234C608.431 348.951 607.821 348.31 606.603 348.31C605.53 348.31 604.563 348.679 603.702 349.417V347.633C604.651 347.07 605.747 346.789 606.989 346.789C609.263 346.789 610.399 347.908 610.399 350.146V356ZM608.431 351.579L606.541 351.843C605.955 351.919 605.513 352.062 605.214 352.273C604.921 352.479 604.774 352.842 604.774 353.363C604.774 353.744 604.909 354.058 605.179 354.304C605.454 354.544 605.82 354.664 606.277 354.664C606.898 354.664 607.411 354.447 607.815 354.014C608.226 353.574 608.431 353.023 608.431 352.361V351.579ZM614.943 356H612.896V342.676H614.943V356ZM630.878 345.172H627.257V356H625.165V345.172H621.553V343.396H630.878V345.172ZM638.357 352.054H632.223C632.246 352.886 632.501 353.527 632.987 353.979C633.479 354.43 634.153 354.655 635.009 354.655C635.97 354.655 636.852 354.368 637.654 353.794V355.438C636.834 355.953 635.75 356.211 634.402 356.211C633.078 356.211 632.038 355.804 631.282 354.989C630.532 354.169 630.157 353.018 630.157 351.535C630.157 350.135 630.57 348.995 631.396 348.116C632.229 347.231 633.26 346.789 634.49 346.789C635.721 346.789 636.673 347.185 637.347 347.976C638.021 348.767 638.357 349.865 638.357 351.271V352.054ZM636.389 350.612C636.383 349.88 636.21 349.312 635.87 348.907C635.53 348.497 635.062 348.292 634.464 348.292C633.878 348.292 633.38 348.506 632.97 348.934C632.565 349.361 632.316 349.921 632.223 350.612H636.389ZM653.756 356H651.717V351.096C651.717 350.152 651.582 349.47 651.312 349.048C651.049 348.626 650.601 348.415 649.968 348.415C649.435 348.415 648.98 348.682 648.605 349.215C648.236 349.748 648.052 350.387 648.052 351.131V356H646.004V350.929C646.004 349.253 645.412 348.415 644.229 348.415C643.678 348.415 643.224 348.667 642.866 349.171C642.515 349.675 642.339 350.328 642.339 351.131V356H640.3V347H642.339V348.424H642.374C643.024 347.334 643.971 346.789 645.213 346.789C645.834 346.789 646.376 346.962 646.839 347.308C647.308 347.647 647.627 348.096 647.797 348.652C648.465 347.41 649.461 346.789 650.785 346.789C652.766 346.789 653.756 348.011 653.756 350.454V356ZM658.317 354.673H658.282V360.14H656.243V347H658.282V348.582H658.317C659.015 347.387 660.034 346.789 661.376 346.789C662.519 346.789 663.409 347.19 664.048 347.993C664.687 348.796 665.006 349.874 665.006 351.228C665.006 352.728 664.646 353.929 663.925 354.831C663.204 355.733 662.22 356.185 660.972 356.185C659.823 356.185 658.938 355.681 658.317 354.673ZM658.265 351.122V352.238C658.265 352.895 658.473 353.451 658.889 353.908C659.311 354.365 659.844 354.594 660.488 354.594C661.244 354.594 661.836 354.301 662.264 353.715C662.697 353.123 662.914 352.3 662.914 351.245C662.914 350.36 662.712 349.669 662.308 349.171C661.909 348.667 661.367 348.415 660.682 348.415C659.955 348.415 659.369 348.673 658.924 349.188C658.484 349.704 658.265 350.349 658.265 351.122ZM667.933 356.193C667.581 356.193 667.282 356.079 667.036 355.851C666.79 355.616 666.667 355.338 666.667 355.016C666.667 354.688 666.79 354.406 667.036 354.172C667.282 353.938 667.581 353.82 667.933 353.82C668.29 353.82 668.592 353.938 668.838 354.172C669.09 354.406 669.216 354.688 669.216 355.016C669.216 355.338 669.09 355.616 668.838 355.851C668.592 356.079 668.29 356.193 667.933 356.193ZM685.405 355.473C684.456 355.965 683.275 356.211 681.863 356.211C680.035 356.211 678.57 355.634 677.469 354.479C676.367 353.325 675.816 351.811 675.816 349.936C675.816 347.92 676.435 346.291 677.671 345.049C678.913 343.807 680.48 343.186 682.373 343.186C683.592 343.186 684.603 343.358 685.405 343.704V345.778C684.556 345.274 683.618 345.022 682.593 345.022C681.228 345.022 680.12 345.459 679.271 346.332C678.427 347.205 678.005 348.371 678.005 349.83C678.005 351.219 678.4 352.326 679.191 353.152C679.982 353.973 681.022 354.383 682.312 354.383C683.501 354.383 684.532 354.102 685.405 353.539V355.473ZM695.565 356H693.526V351.078C693.526 349.297 692.932 348.406 691.742 348.406C691.145 348.406 690.641 348.664 690.23 349.18C689.82 349.695 689.615 350.354 689.615 351.157V356H687.567V342.676H689.615V348.494H689.65C690.33 347.357 691.303 346.789 692.568 346.789C694.566 346.789 695.565 348.011 695.565 350.454V356ZM704.952 356H702.975V354.594H702.939C702.318 355.672 701.407 356.211 700.206 356.211C699.321 356.211 698.627 355.971 698.123 355.49C697.625 355.01 697.376 354.374 697.376 353.583C697.376 351.884 698.354 350.894 700.312 350.612L702.983 350.234C702.983 348.951 702.374 348.31 701.155 348.31C700.083 348.31 699.116 348.679 698.255 349.417V347.633C699.204 347.07 700.3 346.789 701.542 346.789C703.815 346.789 704.952 347.908 704.952 350.146V356ZM702.983 351.579L701.094 351.843C700.508 351.919 700.065 352.062 699.767 352.273C699.474 352.479 699.327 352.842 699.327 353.363C699.327 353.744 699.462 354.058 699.731 354.304C700.007 354.544 700.373 354.664 700.83 354.664C701.451 354.664 701.964 354.447 702.368 354.014C702.778 353.574 702.983 353.023 702.983 352.361V351.579ZM715.464 356H713.425V350.929C713.425 349.247 712.83 348.406 711.641 348.406C711.02 348.406 710.507 348.641 710.103 349.109C709.698 349.572 709.496 350.158 709.496 350.867V356H707.448V347H709.496V348.494H709.531C710.205 347.357 711.178 346.789 712.449 346.789C713.428 346.789 714.175 347.108 714.69 347.747C715.206 348.38 715.464 349.297 715.464 350.498V356ZM726.151 355.279C726.151 358.584 724.49 360.236 721.168 360.236C719.996 360.236 718.974 360.04 718.101 359.647V357.784C719.085 358.347 720.02 358.628 720.904 358.628C723.043 358.628 724.112 357.576 724.112 355.473V354.488H724.077C723.403 355.637 722.39 356.211 721.036 356.211C719.94 356.211 719.056 355.812 718.382 355.016C717.714 354.213 717.38 353.138 717.38 351.79C717.38 350.261 717.74 349.045 718.461 348.143C719.182 347.24 720.172 346.789 721.432 346.789C722.621 346.789 723.503 347.275 724.077 348.248H724.112V347H726.151V355.279ZM724.13 351.878V350.709C724.13 350.076 723.919 349.537 723.497 349.092C723.081 348.641 722.56 348.415 721.933 348.415C721.159 348.415 720.553 348.702 720.113 349.276C719.68 349.845 719.463 350.642 719.463 351.667C719.463 352.552 719.671 353.261 720.087 353.794C720.509 354.321 721.065 354.585 721.757 354.585C722.46 354.585 723.031 354.333 723.471 353.829C723.91 353.319 724.13 352.669 724.13 351.878ZM736.426 352.054H730.291C730.314 352.886 730.569 353.527 731.056 353.979C731.548 354.43 732.222 354.655 733.077 354.655C734.038 354.655 734.92 354.368 735.723 353.794V355.438C734.902 355.953 733.818 356.211 732.471 356.211C731.146 356.211 730.106 355.804 729.351 354.989C728.601 354.169 728.226 353.018 728.226 351.535C728.226 350.135 728.639 348.995 729.465 348.116C730.297 347.231 731.328 346.789 732.559 346.789C733.789 346.789 734.741 347.185 735.415 347.976C736.089 348.767 736.426 349.865 736.426 351.271V352.054ZM734.457 350.612C734.451 349.88 734.278 349.312 733.938 348.907C733.599 348.497 733.13 348.292 732.532 348.292C731.946 348.292 731.448 348.506 731.038 348.934C730.634 349.361 730.385 349.921 730.291 350.612H734.457Z" fill="#999999"/>
<path d="M798.001 369.396L794.547 382H792.183L789.783 373.185C789.684 372.81 789.622 372.399 789.599 371.954H789.563C789.534 372.37 789.464 372.774 789.353 373.167L786.944 382H784.527L781.003 369.396H783.297L785.582 378.625C785.676 379.012 785.734 379.416 785.758 379.838H785.802C785.825 379.539 785.907 379.135 786.048 378.625L788.632 369.396H790.785L793.176 378.695C793.258 379.012 793.319 379.387 793.36 379.82H793.396C793.413 379.527 793.48 379.141 793.598 378.66L795.839 369.396H798.001ZM805.727 382H803.749V380.594H803.714C803.093 381.672 802.182 382.211 800.98 382.211C800.096 382.211 799.401 381.971 798.897 381.49C798.399 381.01 798.15 380.374 798.15 379.583C798.15 377.884 799.129 376.894 801.086 376.612L803.758 376.234C803.758 374.951 803.148 374.31 801.93 374.31C800.857 374.31 799.891 374.679 799.029 375.417V373.633C799.979 373.07 801.074 372.789 802.316 372.789C804.59 372.789 805.727 373.908 805.727 376.146V382ZM803.758 377.579L801.868 377.843C801.282 377.919 800.84 378.062 800.541 378.273C800.248 378.479 800.102 378.842 800.102 379.363C800.102 379.744 800.236 380.058 800.506 380.304C800.781 380.544 801.147 380.664 801.604 380.664C802.226 380.664 802.738 380.447 803.143 380.014C803.553 379.574 803.758 379.023 803.758 378.361V377.579ZM813.443 374.942C813.197 374.749 812.843 374.652 812.38 374.652C811.776 374.652 811.272 374.925 810.868 375.47C810.464 376.015 810.262 376.756 810.262 377.693V382H808.223V373H810.262V374.854H810.297C810.496 374.222 810.801 373.729 811.211 373.378C811.627 373.021 812.09 372.842 812.6 372.842C812.969 372.842 813.25 372.897 813.443 373.009V374.942ZM828.341 382H826.302V377.096C826.302 376.152 826.167 375.47 825.897 375.048C825.634 374.626 825.186 374.415 824.553 374.415C824.02 374.415 823.565 374.682 823.19 375.215C822.821 375.748 822.637 376.387 822.637 377.131V382H820.589V376.929C820.589 375.253 819.997 374.415 818.813 374.415C818.263 374.415 817.809 374.667 817.451 375.171C817.1 375.675 816.924 376.328 816.924 377.131V382H814.885V373H816.924V374.424H816.959C817.609 373.334 818.556 372.789 819.798 372.789C820.419 372.789 820.961 372.962 821.424 373.308C821.893 373.647 822.212 374.096 822.382 374.652C823.05 373.41 824.046 372.789 825.37 372.789C827.351 372.789 828.341 374.011 828.341 376.454V382ZM838.448 378.054H832.313C832.337 378.886 832.592 379.527 833.078 379.979C833.57 380.43 834.244 380.655 835.1 380.655C836.061 380.655 836.942 380.368 837.745 379.794V381.438C836.925 381.953 835.841 382.211 834.493 382.211C833.169 382.211 832.129 381.804 831.373 380.989C830.623 380.169 830.248 379.018 830.248 377.535C830.248 376.135 830.661 374.995 831.487 374.116C832.319 373.231 833.351 372.789 834.581 372.789C835.812 372.789 836.764 373.185 837.438 373.976C838.111 374.767 838.448 375.865 838.448 377.271V378.054ZM836.479 376.612C836.474 375.88 836.301 375.312 835.961 374.907C835.621 374.497 835.152 374.292 834.555 374.292C833.969 374.292 833.471 374.506 833.061 374.934C832.656 375.361 832.407 375.921 832.313 376.612H836.479ZM839.828 381.719V379.829C840.59 380.409 841.431 380.699 842.351 380.699C843.581 380.699 844.196 380.336 844.196 379.609C844.196 379.404 844.144 379.231 844.038 379.091C843.933 378.944 843.789 378.815 843.607 378.704C843.432 378.593 843.221 378.493 842.975 378.405C842.734 378.317 842.465 378.218 842.166 378.106C841.797 377.96 841.463 377.805 841.164 377.641C840.871 377.477 840.625 377.292 840.426 377.087C840.232 376.876 840.086 376.639 839.986 376.375C839.887 376.111 839.837 375.804 839.837 375.452C839.837 375.019 839.939 374.638 840.145 374.31C840.35 373.976 840.625 373.697 840.971 373.475C841.316 373.246 841.709 373.076 842.148 372.965C842.588 372.848 843.042 372.789 843.511 372.789C844.343 372.789 845.087 372.915 845.743 373.167V374.951C845.11 374.518 844.384 374.301 843.563 374.301C843.306 374.301 843.071 374.327 842.86 374.38C842.655 374.433 842.479 374.506 842.333 374.6C842.187 374.693 842.072 374.808 841.99 374.942C841.908 375.071 841.867 375.215 841.867 375.373C841.867 375.566 841.908 375.73 841.99 375.865C842.072 376 842.192 376.12 842.351 376.226C842.515 376.325 842.708 376.419 842.931 376.507C843.159 376.589 843.42 376.68 843.713 376.779C844.1 376.938 844.445 377.099 844.75 377.263C845.061 377.427 845.324 377.614 845.541 377.825C845.758 378.03 845.925 378.271 846.042 378.546C846.159 378.815 846.218 379.138 846.218 379.513C846.218 379.97 846.112 380.368 845.901 380.708C845.69 381.048 845.409 381.329 845.058 381.552C844.706 381.774 844.299 381.938 843.836 382.044C843.379 382.155 842.896 382.211 842.386 382.211C841.401 382.211 840.549 382.047 839.828 381.719ZM852.906 381.903C852.508 382.103 851.983 382.202 851.333 382.202C849.587 382.202 848.714 381.364 848.714 379.688V374.6H847.211V373H848.714V370.917L850.753 370.337V373H852.906V374.6H850.753V379.1C850.753 379.633 850.85 380.014 851.043 380.242C851.236 380.471 851.559 380.585 852.01 380.585C852.355 380.585 852.654 380.485 852.906 380.286V381.903ZM873.385 382H871.311V373.844C871.311 373.176 871.352 372.358 871.434 371.392H871.398C871.27 371.942 871.155 372.338 871.056 372.578L867.294 382H865.853L862.082 372.648C861.977 372.373 861.865 371.954 861.748 371.392H861.713C861.76 371.896 861.783 372.719 861.783 373.861V382H859.85V369.396H862.794L866.107 377.79C866.359 378.435 866.523 378.915 866.6 379.231H866.644C866.86 378.569 867.036 378.077 867.171 377.755L870.546 369.396H873.385V382ZM880.258 382.211C878.869 382.211 877.759 381.792 876.927 380.954C876.101 380.11 875.688 378.994 875.688 377.605C875.688 376.094 876.118 374.913 876.979 374.063C877.847 373.214 879.013 372.789 880.478 372.789C881.884 372.789 882.979 373.202 883.765 374.028C884.55 374.854 884.942 376 884.942 377.465C884.942 378.9 884.518 380.052 883.668 380.919C882.824 381.78 881.688 382.211 880.258 382.211ZM880.354 374.415C879.558 374.415 878.928 374.693 878.465 375.25C878.002 375.807 877.771 376.574 877.771 377.553C877.771 378.496 878.005 379.24 878.474 379.785C878.942 380.324 879.569 380.594 880.354 380.594C881.157 380.594 881.772 380.327 882.2 379.794C882.634 379.261 882.851 378.502 882.851 377.518C882.851 376.527 882.634 375.763 882.2 375.224C881.772 374.685 881.157 374.415 880.354 374.415ZM895.041 382H893.002V376.929C893.002 375.247 892.407 374.406 891.218 374.406C890.597 374.406 890.084 374.641 889.68 375.109C889.275 375.572 889.073 376.158 889.073 376.867V382H887.025V373H889.073V374.494H889.108C889.782 373.357 890.755 372.789 892.026 372.789C893.005 372.789 893.752 373.108 894.268 373.747C894.783 374.38 895.041 375.297 895.041 376.498V382ZM902.283 381.903C901.885 382.103 901.36 382.202 900.71 382.202C898.964 382.202 898.091 381.364 898.091 379.688V374.6H896.588V373H898.091V370.917L900.13 370.337V373H902.283V374.6H900.13V379.1C900.13 379.633 900.227 380.014 900.42 380.242C900.613 380.471 900.936 380.585 901.387 380.585C901.732 380.585 902.031 380.485 902.283 380.286V381.903ZM912.039 382H910V377.078C910 375.297 909.405 374.406 908.216 374.406C907.618 374.406 907.114 374.664 906.704 375.18C906.294 375.695 906.089 376.354 906.089 377.157V382H904.041V368.676H906.089V374.494H906.124C906.804 373.357 907.776 372.789 909.042 372.789C911.04 372.789 912.039 374.011 912.039 376.454V382Z" fill="#999999"/>
<path d="M1002.75 381.473C1001.8 381.965 1000.62 382.211 999.211 382.211C997.383 382.211 995.918 381.634 994.816 380.479C993.715 379.325 993.164 377.811 993.164 375.936C993.164 373.92 993.782 372.291 995.019 371.049C996.261 369.807 997.828 369.186 999.721 369.186C1000.94 369.186 1001.95 369.358 1002.75 369.704V371.778C1001.9 371.274 1000.97 371.022 999.94 371.022C998.575 371.022 997.468 371.459 996.618 372.332C995.774 373.205 995.353 374.371 995.353 375.83C995.353 377.219 995.748 378.326 996.539 379.152C997.33 379.973 998.37 380.383 999.659 380.383C1000.85 380.383 1001.88 380.102 1002.75 379.539V381.473ZM1008.91 382.211C1007.52 382.211 1006.41 381.792 1005.57 380.954C1004.75 380.11 1004.33 378.994 1004.33 377.605C1004.33 376.094 1004.77 374.913 1005.63 374.063C1006.49 373.214 1007.66 372.789 1009.12 372.789C1010.53 372.789 1011.63 373.202 1012.41 374.028C1013.2 374.854 1013.59 376 1013.59 377.465C1013.59 378.9 1013.17 380.052 1012.32 380.919C1011.47 381.78 1010.33 382.211 1008.91 382.211ZM1009 374.415C1008.21 374.415 1007.58 374.693 1007.11 375.25C1006.65 375.807 1006.42 376.574 1006.42 377.553C1006.42 378.496 1006.65 379.24 1007.12 379.785C1007.59 380.324 1008.22 380.594 1009 380.594C1009.8 380.594 1010.42 380.327 1010.85 379.794C1011.28 379.261 1011.5 378.502 1011.5 377.518C1011.5 376.527 1011.28 375.763 1010.85 375.224C1010.42 374.685 1009.8 374.415 1009 374.415ZM1017.72 382H1015.67V368.676H1017.72V382ZM1028.57 382H1026.53V380.471H1026.49C1025.84 381.631 1024.83 382.211 1023.46 382.211C1022.35 382.211 1021.46 381.81 1020.8 381.007C1020.13 380.198 1019.8 379.1 1019.8 377.711C1019.8 376.223 1020.17 375.03 1020.9 374.134C1021.64 373.237 1022.62 372.789 1023.85 372.789C1025.06 372.789 1025.94 373.275 1026.49 374.248H1026.53V368.676H1028.57V382ZM1026.55 377.887V376.709C1026.55 376.07 1026.35 375.528 1025.93 375.083C1025.51 374.638 1024.98 374.415 1024.34 374.415C1023.58 374.415 1022.98 374.699 1022.54 375.268C1022.1 375.836 1021.89 376.624 1021.89 377.632C1021.89 378.546 1022.09 379.27 1022.51 379.803C1022.93 380.33 1023.5 380.594 1024.21 380.594C1024.9 380.594 1025.47 380.339 1025.9 379.829C1026.34 379.313 1026.55 378.666 1026.55 377.887ZM1038.85 378.054H1032.71C1032.74 378.886 1032.99 379.527 1033.48 379.979C1033.97 380.43 1034.65 380.655 1035.5 380.655C1036.46 380.655 1037.34 380.368 1038.15 379.794V381.438C1037.33 381.953 1036.24 382.211 1034.89 382.211C1033.57 382.211 1032.53 381.804 1031.77 380.989C1031.02 380.169 1030.65 379.018 1030.65 377.535C1030.65 376.135 1031.06 374.995 1031.89 374.116C1032.72 373.231 1033.75 372.789 1034.98 372.789C1036.21 372.789 1037.17 373.185 1037.84 373.976C1038.51 374.767 1038.85 375.865 1038.85 377.271V378.054ZM1036.88 376.612C1036.88 375.88 1036.7 375.312 1036.36 374.907C1036.02 374.497 1035.55 374.292 1034.96 374.292C1034.37 374.292 1033.87 374.506 1033.46 374.934C1033.06 375.361 1032.81 375.921 1032.71 376.612H1036.88ZM1040.23 381.719V379.829C1040.99 380.409 1041.83 380.699 1042.75 380.699C1043.98 380.699 1044.6 380.336 1044.6 379.609C1044.6 379.404 1044.54 379.231 1044.44 379.091C1044.33 378.944 1044.19 378.815 1044.01 378.704C1043.83 378.593 1043.62 378.493 1043.38 378.405C1043.14 378.317 1042.87 378.218 1042.57 378.106C1042.2 377.96 1041.86 377.805 1041.57 377.641C1041.27 377.477 1041.03 377.292 1040.83 377.087C1040.63 376.876 1040.49 376.639 1040.39 376.375C1040.29 376.111 1040.24 375.804 1040.24 375.452C1040.24 375.019 1040.34 374.638 1040.55 374.31C1040.75 373.976 1041.03 373.697 1041.37 373.475C1041.72 373.246 1042.11 373.076 1042.55 372.965C1042.99 372.848 1043.44 372.789 1043.91 372.789C1044.74 372.789 1045.49 372.915 1046.14 373.167V374.951C1045.51 374.518 1044.79 374.301 1043.96 374.301C1043.71 374.301 1043.47 374.327 1043.26 374.38C1043.06 374.433 1042.88 374.506 1042.73 374.6C1042.59 374.693 1042.47 374.808 1042.39 374.942C1042.31 375.071 1042.27 375.215 1042.27 375.373C1042.27 375.566 1042.31 375.73 1042.39 375.865C1042.47 376 1042.59 376.12 1042.75 376.226C1042.92 376.325 1043.11 376.419 1043.33 376.507C1043.56 376.589 1043.82 376.68 1044.11 376.779C1044.5 376.938 1044.85 377.099 1045.15 377.263C1045.46 377.427 1045.73 377.614 1045.94 377.825C1046.16 378.03 1046.33 378.271 1046.44 378.546C1046.56 378.815 1046.62 379.138 1046.62 379.513C1046.62 379.97 1046.51 380.368 1046.3 380.708C1046.09 381.048 1045.81 381.329 1045.46 381.552C1045.11 381.774 1044.7 381.938 1044.24 382.044C1043.78 382.155 1043.3 382.211 1042.79 382.211C1041.8 382.211 1040.95 382.047 1040.23 381.719ZM1053.31 381.903C1052.91 382.103 1052.38 382.202 1051.73 382.202C1049.99 382.202 1049.12 381.364 1049.12 379.688V374.6H1047.61V373H1049.12V370.917L1051.15 370.337V373H1053.31V374.6H1051.15V379.1C1051.15 379.633 1051.25 380.014 1051.44 380.242C1051.64 380.471 1051.96 380.585 1052.41 380.585C1052.76 380.585 1053.06 380.485 1053.31 380.286V381.903ZM1073.79 382H1071.71V373.844C1071.71 373.176 1071.75 372.358 1071.83 371.392H1071.8C1071.67 371.942 1071.56 372.338 1071.46 372.578L1067.7 382H1066.25L1062.48 372.648C1062.38 372.373 1062.27 371.954 1062.15 371.392H1062.11C1062.16 371.896 1062.18 372.719 1062.18 373.861V382H1060.25V369.396H1063.2L1066.51 377.79C1066.76 378.435 1066.92 378.915 1067 379.231H1067.04C1067.26 378.569 1067.44 378.077 1067.57 377.755L1070.95 369.396H1073.79V382ZM1080.66 382.211C1079.27 382.211 1078.16 381.792 1077.33 380.954C1076.5 380.11 1076.09 378.994 1076.09 377.605C1076.09 376.094 1076.52 374.913 1077.38 374.063C1078.25 373.214 1079.41 372.789 1080.88 372.789C1082.29 372.789 1083.38 373.202 1084.17 374.028C1084.95 374.854 1085.34 376 1085.34 377.465C1085.34 378.9 1084.92 380.052 1084.07 380.919C1083.23 381.78 1082.09 382.211 1080.66 382.211ZM1080.76 374.415C1079.96 374.415 1079.33 374.693 1078.87 375.25C1078.4 375.807 1078.17 376.574 1078.17 377.553C1078.17 378.496 1078.41 379.24 1078.88 379.785C1079.34 380.324 1079.97 380.594 1080.76 380.594C1081.56 380.594 1082.17 380.327 1082.6 379.794C1083.04 379.261 1083.25 378.502 1083.25 377.518C1083.25 376.527 1083.04 375.763 1082.6 375.224C1082.17 374.685 1081.56 374.415 1080.76 374.415ZM1095.44 382H1093.4V376.929C1093.4 375.247 1092.81 374.406 1091.62 374.406C1091 374.406 1090.49 374.641 1090.08 375.109C1089.68 375.572 1089.47 376.158 1089.47 376.867V382H1087.43V373H1089.47V374.494H1089.51C1090.18 373.357 1091.16 372.789 1092.43 372.789C1093.41 372.789 1094.15 373.108 1094.67 373.747C1095.18 374.38 1095.44 375.297 1095.44 376.498V382ZM1102.68 381.903C1102.29 382.103 1101.76 382.202 1101.11 382.202C1099.37 382.202 1098.49 381.364 1098.49 379.688V374.6H1096.99V373H1098.49V370.917L1100.53 370.337V373H1102.68V374.6H1100.53V379.1C1100.53 379.633 1100.63 380.014 1100.82 380.242C1101.01 380.471 1101.34 380.585 1101.79 380.585C1102.13 380.585 1102.43 380.485 1102.68 380.286V381.903ZM1112.44 382H1110.4V377.078C1110.4 375.297 1109.81 374.406 1108.62 374.406C1108.02 374.406 1107.52 374.664 1107.11 375.18C1106.7 375.695 1106.49 376.354 1106.49 377.157V382H1104.44V368.676H1106.49V374.494H1106.53C1107.21 373.357 1108.18 372.789 1109.44 372.789C1111.44 372.789 1112.44 374.011 1112.44 376.454V382Z" fill="#999999"/>
<path d="M808.24 281.396L804.786 294H802.422L800.022 285.185C799.923 284.81 799.861 284.399 799.838 283.954H799.803C799.773 284.37 799.703 284.774 799.592 285.167L797.184 294H794.767L791.242 281.396H793.536L795.821 290.625C795.915 291.012 795.974 291.416 795.997 291.838H796.041C796.064 291.539 796.146 291.135 796.287 290.625L798.871 281.396H801.024L803.415 290.695C803.497 291.012 803.559 291.387 803.6 291.82H803.635C803.652 291.527 803.72 291.141 803.837 290.66L806.078 281.396H808.24ZM815.966 294H813.988V292.594H813.953C813.332 293.672 812.421 294.211 811.22 294.211C810.335 294.211 809.641 293.971 809.137 293.49C808.639 293.01 808.39 292.374 808.39 291.583C808.39 289.884 809.368 288.894 811.325 288.612L813.997 288.234C813.997 286.951 813.388 286.31 812.169 286.31C811.097 286.31 810.13 286.679 809.269 287.417V285.633C810.218 285.07 811.313 284.789 812.556 284.789C814.829 284.789 815.966 285.908 815.966 288.146V294ZM813.997 289.579L812.107 289.843C811.521 289.919 811.079 290.062 810.78 290.273C810.487 290.479 810.341 290.842 810.341 291.363C810.341 291.744 810.476 292.058 810.745 292.304C811.021 292.544 811.387 292.664 811.844 292.664C812.465 292.664 812.978 292.447 813.382 292.014C813.792 291.574 813.997 291.023 813.997 290.361V289.579ZM823.683 286.942C823.437 286.749 823.082 286.652 822.619 286.652C822.016 286.652 821.512 286.925 821.107 287.47C820.703 288.015 820.501 288.756 820.501 289.693V294H818.462V285H820.501V286.854H820.536C820.735 286.222 821.04 285.729 821.45 285.378C821.866 285.021 822.329 284.842 822.839 284.842C823.208 284.842 823.489 284.897 823.683 285.009V286.942ZM838.58 294H836.541V289.096C836.541 288.152 836.406 287.47 836.137 287.048C835.873 286.626 835.425 286.415 834.792 286.415C834.259 286.415 833.805 286.682 833.43 287.215C833.061 287.748 832.876 288.387 832.876 289.131V294H830.828V288.929C830.828 287.253 830.236 286.415 829.053 286.415C828.502 286.415 828.048 286.667 827.69 287.171C827.339 287.675 827.163 288.328 827.163 289.131V294H825.124V285H827.163V286.424H827.198C827.849 285.334 828.795 284.789 830.037 284.789C830.658 284.789 831.2 284.962 831.663 285.308C832.132 285.647 832.451 286.096 832.621 286.652C833.289 285.41 834.285 284.789 835.609 284.789C837.59 284.789 838.58 286.011 838.58 288.454V294ZM848.688 290.054H842.553C842.576 290.886 842.831 291.527 843.317 291.979C843.81 292.43 844.483 292.655 845.339 292.655C846.3 292.655 847.182 292.368 847.984 291.794V293.438C847.164 293.953 846.08 294.211 844.732 294.211C843.408 294.211 842.368 293.804 841.612 292.989C840.862 292.169 840.487 291.018 840.487 289.535C840.487 288.135 840.9 286.995 841.727 286.116C842.559 285.231 843.59 284.789 844.82 284.789C846.051 284.789 847.003 285.185 847.677 285.976C848.351 286.767 848.688 287.865 848.688 289.271V290.054ZM846.719 288.612C846.713 287.88 846.54 287.312 846.2 286.907C845.86 286.497 845.392 286.292 844.794 286.292C844.208 286.292 843.71 286.506 843.3 286.934C842.896 287.361 842.646 287.921 842.553 288.612H846.719ZM850.067 293.719V291.829C850.829 292.409 851.67 292.699 852.59 292.699C853.82 292.699 854.436 292.336 854.436 291.609C854.436 291.404 854.383 291.231 854.277 291.091C854.172 290.944 854.028 290.815 853.847 290.704C853.671 290.593 853.46 290.493 853.214 290.405C852.974 290.317 852.704 290.218 852.405 290.106C852.036 289.96 851.702 289.805 851.403 289.641C851.11 289.477 850.864 289.292 850.665 289.087C850.472 288.876 850.325 288.639 850.226 288.375C850.126 288.111 850.076 287.804 850.076 287.452C850.076 287.019 850.179 286.638 850.384 286.31C850.589 285.976 850.864 285.697 851.21 285.475C851.556 285.246 851.948 285.076 852.388 284.965C852.827 284.848 853.281 284.789 853.75 284.789C854.582 284.789 855.326 284.915 855.982 285.167V286.951C855.35 286.518 854.623 286.301 853.803 286.301C853.545 286.301 853.311 286.327 853.1 286.38C852.895 286.433 852.719 286.506 852.572 286.6C852.426 286.693 852.312 286.808 852.229 286.942C852.147 287.071 852.106 287.215 852.106 287.373C852.106 287.566 852.147 287.73 852.229 287.865C852.312 288 852.432 288.12 852.59 288.226C852.754 288.325 852.947 288.419 853.17 288.507C853.398 288.589 853.659 288.68 853.952 288.779C854.339 288.938 854.685 289.099 854.989 289.263C855.3 289.427 855.563 289.614 855.78 289.825C855.997 290.03 856.164 290.271 856.281 290.546C856.398 290.815 856.457 291.138 856.457 291.513C856.457 291.97 856.352 292.368 856.141 292.708C855.93 293.048 855.648 293.329 855.297 293.552C854.945 293.774 854.538 293.938 854.075 294.044C853.618 294.155 853.135 294.211 852.625 294.211C851.641 294.211 850.788 294.047 850.067 293.719ZM863.146 293.903C862.747 294.103 862.223 294.202 861.572 294.202C859.826 294.202 858.953 293.364 858.953 291.688V286.6H857.45V285H858.953V282.917L860.992 282.337V285H863.146V286.6H860.992V291.1C860.992 291.633 861.089 292.014 861.282 292.242C861.476 292.471 861.798 292.585 862.249 292.585C862.595 292.585 862.894 292.485 863.146 292.286V293.903ZM878.869 281.396L874.738 289.421V294H872.646V289.465L868.621 281.396H871.003L873.481 286.802C873.511 286.866 873.599 287.109 873.745 287.531H873.771C873.824 287.344 873.921 287.101 874.062 286.802L876.654 281.396H878.869ZM886.27 290.054H880.135C880.158 290.886 880.413 291.527 880.899 291.979C881.392 292.43 882.065 292.655 882.921 292.655C883.882 292.655 884.764 292.368 885.566 291.794V293.438C884.746 293.953 883.662 294.211 882.314 294.211C880.99 294.211 879.95 293.804 879.194 292.989C878.444 292.169 878.069 291.018 878.069 289.535C878.069 288.135 878.482 286.995 879.309 286.116C880.141 285.231 881.172 284.789 882.402 284.789C883.633 284.789 884.585 285.185 885.259 285.976C885.933 286.767 886.27 287.865 886.27 289.271V290.054ZM884.301 288.612C884.295 287.88 884.122 287.312 883.782 286.907C883.442 286.497 882.974 286.292 882.376 286.292C881.79 286.292 881.292 286.506 880.882 286.934C880.478 287.361 880.229 287.921 880.135 288.612H884.301ZM895.12 294H893.143V292.594H893.107C892.486 293.672 891.575 294.211 890.374 294.211C889.489 294.211 888.795 293.971 888.291 293.49C887.793 293.01 887.544 292.374 887.544 291.583C887.544 289.884 888.522 288.894 890.479 288.612L893.151 288.234C893.151 286.951 892.542 286.31 891.323 286.31C890.251 286.31 889.284 286.679 888.423 287.417V285.633C889.372 285.07 890.468 284.789 891.71 284.789C893.983 284.789 895.12 285.908 895.12 288.146V294ZM893.151 289.579L891.262 289.843C890.676 289.919 890.233 290.062 889.935 290.273C889.642 290.479 889.495 290.842 889.495 291.363C889.495 291.744 889.63 292.058 889.899 292.304C890.175 292.544 890.541 292.664 890.998 292.664C891.619 292.664 892.132 292.447 892.536 292.014C892.946 291.574 893.151 291.023 893.151 290.361V289.579ZM902.837 286.942C902.591 286.749 902.236 286.652 901.773 286.652C901.17 286.652 900.666 286.925 900.262 287.47C899.857 288.015 899.655 288.756 899.655 289.693V294H897.616V285H899.655V286.854H899.69C899.89 286.222 900.194 285.729 900.604 285.378C901.021 285.021 901.483 284.842 901.993 284.842C902.362 284.842 902.644 284.897 902.837 285.009V286.942Z" fill="#999999"/>
<path d="M1012.99 293.473C1012.04 293.965 1010.86 294.211 1009.45 294.211C1007.62 294.211 1006.16 293.634 1005.06 292.479C1003.95 291.325 1003.4 289.811 1003.4 287.936C1003.4 285.92 1004.02 284.291 1005.26 283.049C1006.5 281.807 1008.07 281.186 1009.96 281.186C1011.18 281.186 1012.19 281.358 1012.99 281.704V283.778C1012.14 283.274 1011.21 283.022 1010.18 283.022C1008.81 283.022 1007.71 283.459 1006.86 284.332C1006.01 285.205 1005.59 286.371 1005.59 287.83C1005.59 289.219 1005.99 290.326 1006.78 291.152C1007.57 291.973 1008.61 292.383 1009.9 292.383C1011.09 292.383 1012.12 292.102 1012.99 291.539V293.473ZM1019.14 294.211C1017.76 294.211 1016.65 293.792 1015.81 292.954C1014.99 292.11 1014.57 290.994 1014.57 289.605C1014.57 288.094 1015 286.913 1015.87 286.063C1016.73 285.214 1017.9 284.789 1019.36 284.789C1020.77 284.789 1021.87 285.202 1022.65 286.028C1023.44 286.854 1023.83 288 1023.83 289.465C1023.83 290.9 1023.4 292.052 1022.55 292.919C1021.71 293.78 1020.57 294.211 1019.14 294.211ZM1019.24 286.415C1018.44 286.415 1017.81 286.693 1017.35 287.25C1016.89 287.807 1016.66 288.574 1016.66 289.553C1016.66 290.496 1016.89 291.24 1017.36 291.785C1017.83 292.324 1018.46 292.594 1019.24 292.594C1020.04 292.594 1020.66 292.327 1021.09 291.794C1021.52 291.261 1021.74 290.502 1021.74 289.518C1021.74 288.527 1021.52 287.763 1021.09 287.224C1020.66 286.685 1020.04 286.415 1019.24 286.415ZM1027.96 294H1025.91V280.676H1027.96V294ZM1038.81 294H1036.77V292.471H1036.73C1036.08 293.631 1035.06 294.211 1033.7 294.211C1032.59 294.211 1031.7 293.81 1031.04 293.007C1030.37 292.198 1030.04 291.1 1030.04 289.711C1030.04 288.223 1030.41 287.03 1031.14 286.134C1031.88 285.237 1032.86 284.789 1034.09 284.789C1035.3 284.789 1036.18 285.275 1036.73 286.248H1036.77V280.676H1038.81V294ZM1036.79 289.887V288.709C1036.79 288.07 1036.58 287.528 1036.17 287.083C1035.75 286.638 1035.22 286.415 1034.58 286.415C1033.82 286.415 1033.22 286.699 1032.78 287.268C1032.34 287.836 1032.13 288.624 1032.13 289.632C1032.13 290.546 1032.33 291.27 1032.75 291.803C1033.17 292.33 1033.74 292.594 1034.45 292.594C1035.14 292.594 1035.71 292.339 1036.14 291.829C1036.58 291.313 1036.79 290.666 1036.79 289.887ZM1049.09 290.054H1042.95C1042.98 290.886 1043.23 291.527 1043.72 291.979C1044.21 292.43 1044.88 292.655 1045.74 292.655C1046.7 292.655 1047.58 292.368 1048.39 291.794V293.438C1047.57 293.953 1046.48 294.211 1045.13 294.211C1043.81 294.211 1042.77 293.804 1042.01 292.989C1041.26 292.169 1040.89 291.018 1040.89 289.535C1040.89 288.135 1041.3 286.995 1042.13 286.116C1042.96 285.231 1043.99 284.789 1045.22 284.789C1046.45 284.789 1047.4 285.185 1048.08 285.976C1048.75 286.767 1049.09 287.865 1049.09 289.271V290.054ZM1047.12 288.612C1047.11 287.88 1046.94 287.312 1046.6 286.907C1046.26 286.497 1045.79 286.292 1045.2 286.292C1044.61 286.292 1044.11 286.506 1043.7 286.934C1043.3 287.361 1043.05 287.921 1042.95 288.612H1047.12ZM1050.47 293.719V291.829C1051.23 292.409 1052.07 292.699 1052.99 292.699C1054.22 292.699 1054.84 292.336 1054.84 291.609C1054.84 291.404 1054.78 291.231 1054.68 291.091C1054.57 290.944 1054.43 290.815 1054.25 290.704C1054.07 290.593 1053.86 290.493 1053.62 290.405C1053.38 290.317 1053.11 290.218 1052.81 290.106C1052.44 289.96 1052.1 289.805 1051.8 289.641C1051.51 289.477 1051.27 289.292 1051.07 289.087C1050.87 288.876 1050.73 288.639 1050.63 288.375C1050.53 288.111 1050.48 287.804 1050.48 287.452C1050.48 287.019 1050.58 286.638 1050.79 286.31C1050.99 285.976 1051.27 285.697 1051.61 285.475C1051.96 285.246 1052.35 285.076 1052.79 284.965C1053.23 284.848 1053.68 284.789 1054.15 284.789C1054.98 284.789 1055.73 284.915 1056.38 285.167V286.951C1055.75 286.518 1055.02 286.301 1054.2 286.301C1053.95 286.301 1053.71 286.327 1053.5 286.38C1053.3 286.433 1053.12 286.506 1052.97 286.6C1052.83 286.693 1052.71 286.808 1052.63 286.942C1052.55 287.071 1052.51 287.215 1052.51 287.373C1052.51 287.566 1052.55 287.73 1052.63 287.865C1052.71 288 1052.83 288.12 1052.99 288.226C1053.16 288.325 1053.35 288.419 1053.57 288.507C1053.8 288.589 1054.06 288.68 1054.35 288.779C1054.74 288.938 1055.09 289.099 1055.39 289.263C1055.7 289.427 1055.96 289.614 1056.18 289.825C1056.4 290.03 1056.57 290.271 1056.68 290.546C1056.8 290.815 1056.86 291.138 1056.86 291.513C1056.86 291.97 1056.75 292.368 1056.54 292.708C1056.33 293.048 1056.05 293.329 1055.7 293.552C1055.35 293.774 1054.94 293.938 1054.48 294.044C1054.02 294.155 1053.54 294.211 1053.03 294.211C1052.04 294.211 1051.19 294.047 1050.47 293.719ZM1063.55 293.903C1063.15 294.103 1062.62 294.202 1061.97 294.202C1060.23 294.202 1059.35 293.364 1059.35 291.688V286.6H1057.85V285H1059.35V282.917L1061.39 282.337V285H1063.55V286.6H1061.39V291.1C1061.39 291.633 1061.49 292.014 1061.68 292.242C1061.88 292.471 1062.2 292.585 1062.65 292.585C1063 292.585 1063.29 292.485 1063.55 292.286V293.903ZM1079.27 281.396L1075.14 289.421V294H1073.05V289.465L1069.02 281.396H1071.4L1073.88 286.802C1073.91 286.866 1074 287.109 1074.15 287.531H1074.17C1074.23 287.344 1074.32 287.101 1074.46 286.802L1077.06 281.396H1079.27ZM1086.67 290.054H1080.54C1080.56 290.886 1080.81 291.527 1081.3 291.979C1081.79 292.43 1082.47 292.655 1083.32 292.655C1084.28 292.655 1085.17 292.368 1085.97 291.794V293.438C1085.15 293.953 1084.06 294.211 1082.72 294.211C1081.39 294.211 1080.35 293.804 1079.6 292.989C1078.85 292.169 1078.47 291.018 1078.47 289.535C1078.47 288.135 1078.88 286.995 1079.71 286.116C1080.54 285.231 1081.57 284.789 1082.8 284.789C1084.03 284.789 1084.99 285.185 1085.66 285.976C1086.33 286.767 1086.67 287.865 1086.67 289.271V290.054ZM1084.7 288.612C1084.7 287.88 1084.52 287.312 1084.18 286.907C1083.84 286.497 1083.38 286.292 1082.78 286.292C1082.19 286.292 1081.69 286.506 1081.28 286.934C1080.88 287.361 1080.63 287.921 1080.54 288.612H1084.7ZM1095.52 294H1093.54V292.594H1093.51C1092.89 293.672 1091.98 294.211 1090.78 294.211C1089.89 294.211 1089.2 293.971 1088.69 293.49C1088.19 293.01 1087.95 292.374 1087.95 291.583C1087.95 289.884 1088.92 288.894 1090.88 288.612L1093.55 288.234C1093.55 286.951 1092.94 286.31 1091.72 286.31C1090.65 286.31 1089.69 286.679 1088.82 287.417V285.633C1089.77 285.07 1090.87 284.789 1092.11 284.789C1094.38 284.789 1095.52 285.908 1095.52 288.146V294ZM1093.55 289.579L1091.66 289.843C1091.08 289.919 1090.63 290.062 1090.34 290.273C1090.04 290.479 1089.9 290.842 1089.9 291.363C1089.9 291.744 1090.03 292.058 1090.3 292.304C1090.58 292.544 1090.94 292.664 1091.4 292.664C1092.02 292.664 1092.53 292.447 1092.94 292.014C1093.35 291.574 1093.55 291.023 1093.55 290.361V289.579ZM1103.24 286.942C1102.99 286.749 1102.64 286.652 1102.17 286.652C1101.57 286.652 1101.07 286.925 1100.66 287.47C1100.26 288.015 1100.06 288.756 1100.06 289.693V294H1098.02V285H1100.06V286.854H1100.09C1100.29 286.222 1100.6 285.729 1101.01 285.378C1101.42 285.021 1101.88 284.842 1102.39 284.842C1102.76 284.842 1103.04 284.897 1103.24 285.009V286.942Z" fill="#999999"/>
</g>
<defs>
<filter id="filter0_d_38_2" x="56.9755" y="41.09" width="407.785" height="283.7" filterUnits="userSpaceOnUse" color-interpolation-filters="sRGB">
<feFlood flood-opacity="0" result="BackgroundImageFix"/>
<feColorMatrix in="SourceAlpha" type="matrix" values="0 0 0 0 0 0 0 0 0 0 0 0 0 0 0 0 0 0 127 0" result="hardAlpha"/>
<feOffset dy="4"/>
<feGaussianBlur stdDeviation="3.4"/>
<feComposite in2="hardAlpha" operator="out"/>
<feColorMatrix type="matrix" values="0 0 0 0 0 0 0 0 0 0 0 0 0 0 0 0 0 0 0.25 0"/>
<feBlend mode="normal" in2="BackgroundImageFix" result="effect1_dropShadow_38_2"/>
<feBlend mode="normal" in="SourceGraphic" in2="effect1_dropShadow_38_2" result="shape"/>
</filter>
<filter id="filter1_d_38_2" x="57.2" y="89.2" width="407.6" height="322.6" filterUnits="userSpaceOnUse" color-interpolation-filters="sRGB">
<feFlood flood-opacity="0" result="BackgroundImageFix"/>
<feColorMatrix in="SourceAlpha" type="matrix" values="0 0 0 0 0 0 0 0 0 0 0 0 0 0 0 0 0 0 127 0" result="hardAlpha"/>
<feOffset dy="4"/>
<feGaussianBlur stdDeviation="3.4"/>
<feComposite in2="hardAlpha" operator="out"/>
<feColorMatrix type="matrix" values="0 0 0 0 0 0 0 0 0 0 0 0 0 0 0 0 0 0 0.25 0"/>
<feBlend mode="normal" in2="BackgroundImageFix" result="effect1_dropShadow_38_2"/>
<feBlend mode="normal" in="SourceGraphic" in2="effect1_dropShadow_38_2" result="shape"/>
</filter>
<linearGradient id="paint0_linear_38_2" x1="1009" y1="-23" x2="1009" y2="1188" gradientUnits="userSpaceOnUse">
<stop stop-color="#0F0F0F"/>
<stop offset="0.456731" stop-color="#0F0F0F"/>
<stop offset="0.918269" stop-color="#050505"/>
</linearGradient>
<linearGradient id="paint1_linear_38_2" x1="619.893" y1="439.5" x2="677.591" y2="943.395" gradientUnits="userSpaceOnUse">
<stop stop-color="#1E1E1E"/>
<stop offset="1" stop-color="#1E1E1E"/>
</linearGradient>
<linearGradient id="paint2_linear_38_2" x1="707.774" y1="202.639" x2="727.093" y2="377.071" gradientUnits="userSpaceOnUse">
<stop stop-color="#1E1E1E"/>
<stop offset="1" stop-color="#181818"/>
</linearGradient>
<linearGradient id="paint3_linear_38_2" x1="1409.92" y1="116.305" x2="1448.81" y2="363.61" gradientUnits="userSpaceOnUse">
<stop stop-color="#1E1E1E"/>
<stop offset="1" stop-color="#181818"/>
</linearGradient>
<linearGradient id="paint4_linear_38_2" x1="261.053" y1="313.812" x2="260.683" y2="44.0676" gradientUnits="userSpaceOnUse">
<stop stop-color="#DCEFF9"/>
<stop offset="0.225962" stop-color="#81AFC7"/>
<stop offset="0.961538" stop-color="#6EA2BD"/>
</linearGradient>
<linearGradient id="paint5_linear_38_2" x1="261" y1="92" x2="261" y2="401" gradientUnits="userSpaceOnUse">
<stop stop-color="#B8D9EA"/>
<stop offset="1" stop-color="#DCEFF9"/>
</linearGradient>
<clipPath id="clip0_38_2">
<rect width="1920" height="1080" fill="white"/>
</clipPath>
</defs>
</svg>
